<svg width="446" height="88" viewBox="0 0 446 88" fill="none" xmlns="http://www.w3.org/2000/svg">
<path d="M37.625 44.25C45.9583 35.9167 50.125 30.7083 50.125 28.625C50.125 26.5417 48.0417 25.5 43.875 25.5H25.125V63H43.875C48.0417 63 50.125 61.9583 50.125 59.875C50.125 57.7917 45.9583 52.5833 37.625 44.25ZM43.875 0.5C64.7083 0.5 75.125 9.875 75.125 28.625C75.125 35.4167 73.0417 40.625 68.875 44.25C73.0417 47.875 75.125 53.0833 75.125 59.875C75.125 78.625 64.7083 88 43.875 88H0.125V0.5H43.875ZM126.125 88C114.042 88 103.729 83.7292 95.1875 75.1875C86.6458 66.6458 82.375 56.3333 82.375 44.25C82.375 32.1667 86.6458 21.8542 95.1875 13.3125C103.729 4.77083 114.042 0.5 126.125 0.5C138.208 0.5 148.521 4.77083 157.062 13.3125C165.604 21.8542 169.875 32.1667 169.875 44.25C169.875 56.3333 165.604 66.6458 157.062 75.1875C148.521 83.7292 138.208 88 126.125 88ZM126.125 63C131.292 63 135.708 61.1667 139.375 57.5C143.042 53.8333 144.875 49.4167 144.875 44.25C144.875 39.0833 143.042 34.6667 139.375 31C135.708 27.3333 131.292 25.5 126.125 25.5C120.958 25.5 116.542 27.3333 112.875 31C109.208 34.6667 107.375 39.0833 107.375 44.25C107.375 49.4167 109.208 53.8333 112.875 57.5C116.542 61.1667 120.958 63 126.125 63ZM204.625 0.5V88H179.625V0.5H204.625ZM246.625 63H277.875L265.375 88H221.625V0.5H246.625V63ZM306.375 25.5V38H325.125C329.292 38 331.375 35.9167 331.375 31.75C331.375 27.5833 329.292 25.5 325.125 25.5H306.375ZM306.375 50.5V88H281.375V0.5H325.125C345.958 0.5 356.375 10.9167 356.375 31.75C356.375 45.75 351.688 55.0417 342.312 59.625L364.188 88H332.938L306.375 50.5ZM395.5 56.75V31.75H414.25C418.417 31.75 420.5 30.7083 420.5 28.625C420.5 26.5417 418.417 25.5 414.25 25.5H370.5L383 0.5H414.25C435.083 0.5 445.5 9.875 445.5 28.625C445.5 35.4167 443.417 40.625 439.25 44.25C443.417 47.875 445.5 53.0833 445.5 59.875C445.5 78.625 435.083 88 414.25 88H370.5L383 63H414.25C418.417 63 420.5 61.9583 420.5 59.875C420.5 57.7917 418.417 56.75 414.25 56.75H395.5Z" fill="black"/>
</svg>
